<svg width="324" height="372" viewBox="0 0 324 372" fill="none" xmlns="http://www.w3.org/2000/svg">
<mask id="mask0_888_9616" style="mask-type:alpha" maskUnits="userSpaceOnUse" x="104" y="9" width="118" height="354">
<path d="M220.629 192.819C215.236 263.037 189.894 362.02 152.23 362.272C114.567 362.524 99.1632 257.386 106.477 187.535C113.355 121.846 131.971 5.37785 173.601 9.90706C215.232 14.4366 225.619 127.827 220.629 192.819ZM152.572 356.507C182.114 357.149 208.724 260.234 213.932 192.417C218.753 129.647 208.741 21.8979 173.212 16.1901C137.684 10.4836 121.697 128.134 115.173 184.473C106.337 260.778 123.03 355.863 152.572 356.507Z" fill="#FF00E3"/>
</mask>
<g mask="url(#mask0_888_9616)">
<g filter="url(#filter0_f_888_9616)">
<path d="M226.039 200.038C213.373 323.159 174.915 417.884 137.502 414.882C98.2676 411.733 75.0393 302.298 85.621 170.452C96.2028 38.6063 136.587 -65.7231 175.821 -62.5749C214.847 -59.4427 238.036 48.8466 227.868 179.751C229.14 149.069 222.994 125.596 212.206 124.172C199.259 122.463 184.531 153.153 179.31 192.719C174.088 232.285 180.351 265.745 193.297 267.454C206.119 269.145 220.689 239.055 226.039 200.038Z" fill="url(#paint0_linear_888_9616)"/>
</g>
</g>
<mask id="mask1_888_9616" style="mask-type:alpha" maskUnits="userSpaceOnUse" x="2" y="92" width="321" height="189">
<path d="M139 132.5C202.506 102.061 300.899 74.5162 319.95 107.008C338.999 139.499 255.649 205.408 191.5 234C131.172 260.888 20.9997 303 4.10693 264.682C-12.7856 226.365 80.2195 160.673 139 132.5ZM314.786 109.594C300.571 83.6889 203.335 109.101 142 138.5C85.2293 165.71 -3.07853 228.255 9.74268 261.878C22.5648 295.499 132.446 250.519 184.5 228C255 197.5 329 135.5 314.786 109.594Z" fill="#FF00E3"/>
</mask>
<g mask="url(#mask1_888_9616)">
<g filter="url(#filter1_f_888_9616)">
<path d="M142.546 124.205C255.506 73.6131 356.769 59.5563 372.875 93.4578C389.765 129.01 306.606 203.844 187.133 260.603C67.6604 317.362 -42.8836 334.553 -59.7744 299.001C-76.5748 263.637 5.61235 189.411 124.062 132.764C96.8549 147.003 79.5997 164.063 83.7607 174.118C88.7543 186.184 122.696 183.594 159.572 168.333C196.448 153.072 222.294 130.918 217.301 118.852C212.354 106.902 179.011 109.33 142.546 124.205Z" fill="url(#paint1_linear_888_9616)"/>
</g>
</g>
<mask id="mask2_888_9616" style="mask-type:alpha" maskUnits="userSpaceOnUse" x="12" y="77" width="302" height="219">
<path d="M127.576 233.352C69.4619 193.573 -3.58891 122.134 15.0243 89.3905C33.6382 56.647 132.392 95.8761 189.228 137.136C242.677 175.937 334.234 250.293 309.496 284.081C284.758 317.869 181.365 270.17 127.576 233.352ZM19.8467 92.5693C4.51899 117.832 75.1448 189.335 131.272 227.754C183.222 263.313 281.542 308.517 304.249 280.603C326.955 252.688 233.061 180.017 187.532 146.198C125.868 100.393 35.1746 67.3068 19.8467 92.5693Z" fill="#FF00E3"/>
</mask>
<g mask="url(#mask2_888_9616)">
<g filter="url(#filter2_f_888_9616)">
<path d="M118.619 234.428C18.3258 161.898 -44.4793 81.23 -23.1729 50.3309C-0.828513 17.9271 105.559 52.5285 214.45 127.616C323.341 202.702 393.501 289.841 371.157 322.245C348.932 354.476 243.556 320.413 135.274 246.156C161.209 262.599 184.611 269.012 191.238 260.381C199.191 250.024 179.977 221.924 148.322 197.619C116.668 173.314 84.5593 162.007 76.6066 172.365C68.7304 182.624 87.5046 210.286 118.619 234.428Z" fill="url(#paint2_linear_888_9616)"/>
</g>
</g>
<defs>
<filter id="filter0_f_888_9616" x="68.0645" y="-77.6443" width="177.194" height="507.596" filterUnits="userSpaceOnUse" color-interpolation-filters="sRGB">
<feFlood flood-opacity="0" result="BackgroundImageFix"/>
<feBlend mode="normal" in="SourceGraphic" in2="BackgroundImageFix" result="shape"/>
<feGaussianBlur stdDeviation="7.5" result="effect1_foregroundBlur_888_9616"/>
</filter>
<filter id="filter1_f_888_9616" x="-76.9529" y="59.9451" width="467.006" height="272.568" filterUnits="userSpaceOnUse" color-interpolation-filters="sRGB">
<feFlood flood-opacity="0" result="BackgroundImageFix"/>
<feBlend mode="normal" in="SourceGraphic" in2="BackgroundImageFix" result="shape"/>
<feGaussianBlur stdDeviation="7.5" result="effect1_foregroundBlur_888_9616"/>
</filter>
<filter id="filter2_f_888_9616" x="-42.3208" y="23.1733" width="432.626" height="326.229" filterUnits="userSpaceOnUse" color-interpolation-filters="sRGB">
<feFlood flood-opacity="0" result="BackgroundImageFix"/>
<feBlend mode="normal" in="SourceGraphic" in2="BackgroundImageFix" result="shape"/>
<feGaussianBlur stdDeviation="7.5" result="effect1_foregroundBlur_888_9616"/>
</filter>
<linearGradient id="paint0_linear_888_9616" x1="272.5" y1="188.5" x2="85" y2="176" gradientUnits="userSpaceOnUse">
<stop stop-color="#FFDD00"/>
<stop offset="1" stop-color="#A200FF"/>
</linearGradient>
<linearGradient id="paint1_linear_888_9616" x1="109.324" y1="89.7372" x2="192.248" y2="258.367" gradientUnits="userSpaceOnUse">
<stop stop-color="#FFDD00"/>
<stop offset="1" stop-color="#A200FF"/>
</linearGradient>
<linearGradient id="paint2_linear_888_9616" x1="105.381" y1="280.433" x2="209.956" y2="124.304" gradientUnits="userSpaceOnUse">
<stop stop-color="#FFDD00"/>
<stop offset="1" stop-color="#A200FF"/>
</linearGradient>
</defs>
</svg>
