<svg width="286" height="387" viewBox="0 0 286 387" fill="none" xmlns="http://www.w3.org/2000/svg">
<path d="M285.419 386.093L283.507 363.173C283.507 363.173 202.802 325.168 187.044 295.457C168.006 259.562 229.275 240.868 208.67 205.849C185.781 166.951 101.638 212.214 75.6695 175.3C59.9999 153.026 125.888 106.361 105.142 71.4908C88.3469 43.2628 7.47404 1.36743 7.47404 1.36743L1.08072 14.9459C1.08072 14.9459 76.1242 52.977 93.2253 79.0075C115.969 113.626 43.4965 149.955 67.8225 183.481C94.0334 219.604 181.74 170.88 202.525 210.376C221.034 245.547 153.735 268.416 170.726 304.345C186.22 337.108 285.419 386.093 285.419 386.093Z" fill="url(#paint0_linear_891_9649)" stroke="#A77272"/>
<defs>
<linearGradient id="paint0_linear_891_9649" x1="232.891" y1="357.862" x2="23.5051" y2="37.1586" gradientUnits="userSpaceOnUse">
<stop stop-color="#FFC400"/>
<stop offset="1" stop-color="#9500FF"/>
</linearGradient>
</defs>
</svg>
