<svg width="24" height="23" viewBox="0 0 24 23" fill="none" xmlns="http://www.w3.org/2000/svg">
<path d="M6.29167 20.8333H10.4583C10.4583 21.9792 9.52083 22.9167 8.375 22.9167C7.22917 22.9167 6.29167 21.9792 6.29167 20.8333ZM4.20833 19.7917H12.5417V17.7083H4.20833V19.7917ZM16.1875 9.89583C16.1875 13.875 13.4167 16 12.2604 16.6667H4.48958C3.33333 16 0.5625 13.875 0.5625 9.89583C0.5625 5.58333 4.0625 2.08333 8.375 2.08333C12.6875 2.08333 16.1875 5.58333 16.1875 9.89583ZM21.2604 7.67708L19.8333 8.33333L21.2604 8.98958L21.9167 10.4167L22.5729 8.98958L24 8.33333L22.5729 7.67708L21.9167 6.25L21.2604 7.67708ZM18.7917 6.25L19.7708 4.10417L21.9167 3.125L19.7708 2.14583L18.7917 0L17.8125 2.14583L15.6667 3.125L17.8125 4.10417L18.7917 6.25Z" fill="white"/>
</svg>
