<svg width="21" height="17" viewBox="0 0 21 17" fill="none" xmlns="http://www.w3.org/2000/svg">
<path d="M12.5835 9.5415H17.7918V7.45817H12.5835V9.5415ZM12.5835 6.4165H17.7918V4.33317H12.5835V6.4165ZM3.2085 12.6665H11.5418V12.0936C11.5418 11.3123 11.1599 10.6919 10.396 10.2321C9.63211 9.77241 8.62516 9.5422 7.37516 9.5415C6.12516 9.54081 5.11822 9.77102 4.35433 10.2321C3.59044 10.6932 3.2085 11.3137 3.2085 12.0936V12.6665ZM7.37516 8.49984C7.94808 8.49984 8.43871 8.29602 8.84704 7.88838C9.25537 7.48074 9.45919 6.99011 9.4585 6.4165C9.4578 5.84289 9.25398 5.35262 8.84704 4.94567C8.44009 4.53873 7.94947 4.33456 7.37516 4.33317C6.80086 4.33178 6.31058 4.53595 5.90433 4.94567C5.49808 5.35539 5.29391 5.84567 5.29183 6.4165C5.28975 6.98734 5.49391 7.47796 5.90433 7.88838C6.31475 8.2988 6.80502 8.50261 7.37516 8.49984ZM2.16683 16.8332C1.59391 16.8332 1.10364 16.6294 0.695996 16.2217C0.288357 15.8141 0.0841905 15.3234 0.0834961 14.7498V2.24984C0.0834961 1.67692 0.287663 1.18664 0.695996 0.779004C1.10433 0.371365 1.59461 0.167198 2.16683 0.166504H18.8335C19.4064 0.166504 19.897 0.37067 20.3054 0.779004C20.7137 1.18734 20.9175 1.67761 20.9168 2.24984V14.7498C20.9168 15.3228 20.713 15.8134 20.3054 16.2217C19.8977 16.63 19.4071 16.8339 18.8335 16.8332H2.16683Z" fill="white"/>
</svg>
