<svg width="25" height="15" viewBox="0 0 25 15" fill="none" xmlns="http://www.w3.org/2000/svg">
  <path
    d="M15.6248 2.2915H18.7498C19.4338 2.2915 20.1111 2.42622 20.743 2.68796C21.3749 2.94971 21.949 3.33335 22.4327 3.81699C22.9163 4.30063 23.3 4.87479 23.5617 5.50669C23.8235 6.1386 23.9582 6.81587 23.9582 7.49984C23.9582 8.18381 23.8235 8.86108 23.5617 9.49298C23.3 10.1249 22.9163 10.699 22.4327 11.1827C21.949 11.6663 21.3749 12.05 20.743 12.3117C20.1111 12.5735 19.4338 12.7082 18.7498 12.7082H15.6248M9.37484 12.7082H6.24984C5.56587 12.7082 4.8886 12.5735 4.25669 12.3117C3.62479 12.05 3.05063 11.6663 2.56699 11.1827C1.59024 10.2059 1.0415 8.88117 1.0415 7.49984C1.0415 6.1185 1.59024 4.79374 2.56699 3.81699C3.54374 2.84024 4.8685 2.2915 6.24984 2.2915H9.37484M8.33317 7.49984H16.6665"
    stroke="white" stroke-width="4" stroke-linecap="round" stroke-linejoin="round" />
</svg>