<svg width="16" height="17" viewBox="0 0 16 17" fill="none" xmlns="http://www.w3.org/2000/svg">
<path d="M5.1529 1.26942C4.91228 0.688196 4.27794 0.378835 3.67171 0.544453L0.921834 1.29442C0.378108 1.44441 0 1.93814 0 2.50062C0 10.2315 6.26847 16.5 13.9994 16.5C14.5619 16.5 15.0556 16.1219 15.2056 15.5782L15.9555 12.8283C16.1212 12.2221 15.8118 11.5877 15.2306 11.3471L12.2307 10.0972C11.7214 9.88467 11.1308 10.0315 10.7839 10.4596L9.52146 12.0002C7.32155 10.9596 5.54038 9.17845 4.4998 6.97854L6.04036 5.71923C6.46846 5.36924 6.61533 4.78177 6.40284 4.27241L5.1529 1.27255V1.26942Z" fill="#FF1493"/>
</svg>
